<mxfile host="app.diagrams.net" modified="2024-06-17T07:34:46.983Z" agent="Mozilla/5.0 (Windows NT 10.0; Win64; x64) AppleWebKit/537.36 (KHTML, like Gecko) Chrome/125.0.0.0 Safari/537.36" etag="kDZ84CgA7Z3WNPJBd8dw" version="24.0.7" type="device">
  <diagram name="Page-1" id="Ug5Miv_dIfgvytoltzkB">
    <mxGraphModel dx="1290" dy="522" grid="1" gridSize="10" guides="1" tooltips="1" connect="1" arrows="1" fold="1" page="1" pageScale="1" pageWidth="850" pageHeight="1100" math="0" shadow="0">
      <root>
        <mxCell id="0" />
        <mxCell id="1" parent="0" />
        <mxCell id="FkxsFJLxnNcoPw3IcBEZ-4" style="edgeStyle=orthogonalEdgeStyle;rounded=0;orthogonalLoop=1;jettySize=auto;html=1;exitX=1;exitY=0.5;exitDx=0;exitDy=0;entryX=0;entryY=0.5;entryDx=0;entryDy=0;" edge="1" parent="1" source="FkxsFJLxnNcoPw3IcBEZ-1" target="FkxsFJLxnNcoPw3IcBEZ-2">
          <mxGeometry relative="1" as="geometry" />
        </mxCell>
        <mxCell id="FkxsFJLxnNcoPw3IcBEZ-1" value="Input" style="ellipse;whiteSpace=wrap;html=1;" vertex="1" parent="1">
          <mxGeometry x="130" y="170" width="120" height="80" as="geometry" />
        </mxCell>
        <mxCell id="FkxsFJLxnNcoPw3IcBEZ-5" style="edgeStyle=orthogonalEdgeStyle;rounded=0;orthogonalLoop=1;jettySize=auto;html=1;exitX=1;exitY=0.5;exitDx=0;exitDy=0;entryX=0;entryY=0.5;entryDx=0;entryDy=0;" edge="1" parent="1" source="FkxsFJLxnNcoPw3IcBEZ-2" target="FkxsFJLxnNcoPw3IcBEZ-3">
          <mxGeometry relative="1" as="geometry" />
        </mxCell>
        <mxCell id="FkxsFJLxnNcoPw3IcBEZ-2" value="" style="rounded=1;whiteSpace=wrap;html=1;" vertex="1" parent="1">
          <mxGeometry x="350" y="180" width="120" height="60" as="geometry" />
        </mxCell>
        <mxCell id="FkxsFJLxnNcoPw3IcBEZ-3" value="Output" style="ellipse;whiteSpace=wrap;html=1;" vertex="1" parent="1">
          <mxGeometry x="590" y="170" width="120" height="80" as="geometry" />
        </mxCell>
      </root>
    </mxGraphModel>
  </diagram>
</mxfile>
